<?xml version="1.0" standalone="no"?>
<!DOCTYPE svg PUBLIC "-//W3C//DTD SVG 1.1//EN" "http://www.w3.org/Graphics/SVG/1.1/DTD/svg11.dtd">
<svg width="1784px" height="2050px" version="1.1" xmlns="http://www.w3.org/2000/svg">

<!-- This file is a systemd-analyze SVG file. It is best rendered in a   -->
<!-- browser such as Chrome, Chromium or Firefox. Other applications     -->
<!-- that render these files properly but much slower are ImageMagick,   -->
<!-- gimp, inkscape, etc. To display the files on your system, just      -->
<!-- point your browser to this file.                                    -->

<!-- This plot was generated by systemd-analyze version 239              -->

<defs>
  <style type="text/css">
    <![CDATA[
      rect       { stroke-width: 1; stroke-opacity: 0; }
      rect.background   { fill: rgb(255,255,255); }
      rect.activating   { fill: rgb(255,0,0); fill-opacity: 0.7; }
      rect.active       { fill: rgb(200,150,150); fill-opacity: 0.7; }
      rect.deactivating { fill: rgb(150,100,100); fill-opacity: 0.7; }
      rect.kernel       { fill: rgb(150,150,150); fill-opacity: 0.7; }
      rect.initrd       { fill: rgb(150,150,150); fill-opacity: 0.7; }
      rect.firmware     { fill: rgb(150,150,150); fill-opacity: 0.7; }
      rect.loader       { fill: rgb(150,150,150); fill-opacity: 0.7; }
      rect.userspace    { fill: rgb(150,150,150); fill-opacity: 0.7; }
      rect.security     { fill: rgb(144,238,144); fill-opacity: 0.7; }
      rect.generators   { fill: rgb(102,204,255); fill-opacity: 0.7; }
      rect.unitsload    { fill: rgb( 82,184,255); fill-opacity: 0.7; }
      rect.box   { fill: rgb(240,240,240); stroke: rgb(192,192,192); }
      line       { stroke: rgb(64,64,64); stroke-width: 1; }
//    line.sec1  { }
      line.sec5  { stroke-width: 2; }
      line.sec01 { stroke: rgb(224,224,224); stroke-width: 1; }
      text       { font-family: Verdana, Helvetica; font-size: 14px; }
      text.left  { font-family: Verdana, Helvetica; font-size: 14px; text-anchor: start; }
      text.right { font-family: Verdana, Helvetica; font-size: 14px; text-anchor: end; }
      text.sec   { font-size: 10px; }
    ]]>
   </style>
</defs>

<rect class="background" width="100%" height="100%" />
<text x="20" y="50">Startup finished in 533ms (kernel) + 1.968s (initrd) + 14.540s (userspace) = 17.041s
multi-user.target reached after 14.485s in userspace</text><text x="20" y="30">CentOS Linux 8 (Core) node1.tp3.b2 (Linux 4.18.0-80.el8.x86_64 #1 SMP Tue Jun 4 09:19:46 UTC 2019) x86-64 oracle</text><g transform="translate(20.000,100)">
<rect class="box" x="0" y="0" width="1704.173" height="1800.000" />
  <line class="sec5" x1="0.000" y1="0" x2="0.000" y2="1800.000" />
  <text class="sec" x="0.000" y="-5.000" >0.0s</text>
  <line class="sec01" x1="10.000" y1="0" x2="10.000" y2="1800.000" />
  <line class="sec01" x1="20.000" y1="0" x2="20.000" y2="1800.000" />
  <line class="sec01" x1="30.000" y1="0" x2="30.000" y2="1800.000" />
  <line class="sec01" x1="40.000" y1="0" x2="40.000" y2="1800.000" />
  <line class="sec01" x1="50.000" y1="0" x2="50.000" y2="1800.000" />
  <line class="sec01" x1="60.000" y1="0" x2="60.000" y2="1800.000" />
  <line class="sec01" x1="70.000" y1="0" x2="70.000" y2="1800.000" />
  <line class="sec01" x1="80.000" y1="0" x2="80.000" y2="1800.000" />
  <line class="sec01" x1="90.000" y1="0" x2="90.000" y2="1800.000" />
  <line class="sec1" x1="100.000" y1="0" x2="100.000" y2="1800.000" />
  <text class="sec" x="100.000" y="-5.000" >1.0s</text>
  <line class="sec01" x1="110.000" y1="0" x2="110.000" y2="1800.000" />
  <line class="sec01" x1="120.000" y1="0" x2="120.000" y2="1800.000" />
  <line class="sec01" x1="130.000" y1="0" x2="130.000" y2="1800.000" />
  <line class="sec01" x1="140.000" y1="0" x2="140.000" y2="1800.000" />
  <line class="sec01" x1="150.000" y1="0" x2="150.000" y2="1800.000" />
  <line class="sec01" x1="160.000" y1="0" x2="160.000" y2="1800.000" />
  <line class="sec01" x1="170.000" y1="0" x2="170.000" y2="1800.000" />
  <line class="sec01" x1="180.000" y1="0" x2="180.000" y2="1800.000" />
  <line class="sec01" x1="190.000" y1="0" x2="190.000" y2="1800.000" />
  <line class="sec1" x1="200.000" y1="0" x2="200.000" y2="1800.000" />
  <text class="sec" x="200.000" y="-5.000" >2.0s</text>
  <line class="sec01" x1="210.000" y1="0" x2="210.000" y2="1800.000" />
  <line class="sec01" x1="220.000" y1="0" x2="220.000" y2="1800.000" />
  <line class="sec01" x1="230.000" y1="0" x2="230.000" y2="1800.000" />
  <line class="sec01" x1="240.000" y1="0" x2="240.000" y2="1800.000" />
  <line class="sec01" x1="250.000" y1="0" x2="250.000" y2="1800.000" />
  <line class="sec01" x1="260.000" y1="0" x2="260.000" y2="1800.000" />
  <line class="sec01" x1="270.000" y1="0" x2="270.000" y2="1800.000" />
  <line class="sec01" x1="280.000" y1="0" x2="280.000" y2="1800.000" />
  <line class="sec01" x1="290.000" y1="0" x2="290.000" y2="1800.000" />
  <line class="sec1" x1="300.000" y1="0" x2="300.000" y2="1800.000" />
  <text class="sec" x="300.000" y="-5.000" >3.0s</text>
  <line class="sec01" x1="310.000" y1="0" x2="310.000" y2="1800.000" />
  <line class="sec01" x1="320.000" y1="0" x2="320.000" y2="1800.000" />
  <line class="sec01" x1="330.000" y1="0" x2="330.000" y2="1800.000" />
  <line class="sec01" x1="340.000" y1="0" x2="340.000" y2="1800.000" />
  <line class="sec01" x1="350.000" y1="0" x2="350.000" y2="1800.000" />
  <line class="sec01" x1="360.000" y1="0" x2="360.000" y2="1800.000" />
  <line class="sec01" x1="370.000" y1="0" x2="370.000" y2="1800.000" />
  <line class="sec01" x1="380.000" y1="0" x2="380.000" y2="1800.000" />
  <line class="sec01" x1="390.000" y1="0" x2="390.000" y2="1800.000" />
  <line class="sec1" x1="400.000" y1="0" x2="400.000" y2="1800.000" />
  <text class="sec" x="400.000" y="-5.000" >4.0s</text>
  <line class="sec01" x1="410.000" y1="0" x2="410.000" y2="1800.000" />
  <line class="sec01" x1="420.000" y1="0" x2="420.000" y2="1800.000" />
  <line class="sec01" x1="430.000" y1="0" x2="430.000" y2="1800.000" />
  <line class="sec01" x1="440.000" y1="0" x2="440.000" y2="1800.000" />
  <line class="sec01" x1="450.000" y1="0" x2="450.000" y2="1800.000" />
  <line class="sec01" x1="460.000" y1="0" x2="460.000" y2="1800.000" />
  <line class="sec01" x1="470.000" y1="0" x2="470.000" y2="1800.000" />
  <line class="sec01" x1="480.000" y1="0" x2="480.000" y2="1800.000" />
  <line class="sec01" x1="490.000" y1="0" x2="490.000" y2="1800.000" />
  <line class="sec5" x1="500.000" y1="0" x2="500.000" y2="1800.000" />
  <text class="sec" x="500.000" y="-5.000" >5.0s</text>
  <line class="sec01" x1="510.000" y1="0" x2="510.000" y2="1800.000" />
  <line class="sec01" x1="520.000" y1="0" x2="520.000" y2="1800.000" />
  <line class="sec01" x1="530.000" y1="0" x2="530.000" y2="1800.000" />
  <line class="sec01" x1="540.000" y1="0" x2="540.000" y2="1800.000" />
  <line class="sec01" x1="550.000" y1="0" x2="550.000" y2="1800.000" />
  <line class="sec01" x1="560.000" y1="0" x2="560.000" y2="1800.000" />
  <line class="sec01" x1="570.000" y1="0" x2="570.000" y2="1800.000" />
  <line class="sec01" x1="580.000" y1="0" x2="580.000" y2="1800.000" />
  <line class="sec01" x1="590.000" y1="0" x2="590.000" y2="1800.000" />
  <line class="sec1" x1="600.000" y1="0" x2="600.000" y2="1800.000" />
  <text class="sec" x="600.000" y="-5.000" >6.0s</text>
  <line class="sec01" x1="610.000" y1="0" x2="610.000" y2="1800.000" />
  <line class="sec01" x1="620.000" y1="0" x2="620.000" y2="1800.000" />
  <line class="sec01" x1="630.000" y1="0" x2="630.000" y2="1800.000" />
  <line class="sec01" x1="640.000" y1="0" x2="640.000" y2="1800.000" />
  <line class="sec01" x1="650.000" y1="0" x2="650.000" y2="1800.000" />
  <line class="sec01" x1="660.000" y1="0" x2="660.000" y2="1800.000" />
  <line class="sec01" x1="670.000" y1="0" x2="670.000" y2="1800.000" />
  <line class="sec01" x1="680.000" y1="0" x2="680.000" y2="1800.000" />
  <line class="sec01" x1="690.000" y1="0" x2="690.000" y2="1800.000" />
  <line class="sec1" x1="700.000" y1="0" x2="700.000" y2="1800.000" />
  <text class="sec" x="700.000" y="-5.000" >7.0s</text>
  <line class="sec01" x1="710.000" y1="0" x2="710.000" y2="1800.000" />
  <line class="sec01" x1="720.000" y1="0" x2="720.000" y2="1800.000" />
  <line class="sec01" x1="730.000" y1="0" x2="730.000" y2="1800.000" />
  <line class="sec01" x1="740.000" y1="0" x2="740.000" y2="1800.000" />
  <line class="sec01" x1="750.000" y1="0" x2="750.000" y2="1800.000" />
  <line class="sec01" x1="760.000" y1="0" x2="760.000" y2="1800.000" />
  <line class="sec01" x1="770.000" y1="0" x2="770.000" y2="1800.000" />
  <line class="sec01" x1="780.000" y1="0" x2="780.000" y2="1800.000" />
  <line class="sec01" x1="790.000" y1="0" x2="790.000" y2="1800.000" />
  <line class="sec1" x1="800.000" y1="0" x2="800.000" y2="1800.000" />
  <text class="sec" x="800.000" y="-5.000" >8.0s</text>
  <line class="sec01" x1="810.000" y1="0" x2="810.000" y2="1800.000" />
  <line class="sec01" x1="820.000" y1="0" x2="820.000" y2="1800.000" />
  <line class="sec01" x1="830.000" y1="0" x2="830.000" y2="1800.000" />
  <line class="sec01" x1="840.000" y1="0" x2="840.000" y2="1800.000" />
  <line class="sec01" x1="850.000" y1="0" x2="850.000" y2="1800.000" />
  <line class="sec01" x1="860.000" y1="0" x2="860.000" y2="1800.000" />
  <line class="sec01" x1="870.000" y1="0" x2="870.000" y2="1800.000" />
  <line class="sec01" x1="880.000" y1="0" x2="880.000" y2="1800.000" />
  <line class="sec01" x1="890.000" y1="0" x2="890.000" y2="1800.000" />
  <line class="sec1" x1="900.000" y1="0" x2="900.000" y2="1800.000" />
  <text class="sec" x="900.000" y="-5.000" >9.0s</text>
  <line class="sec01" x1="910.000" y1="0" x2="910.000" y2="1800.000" />
  <line class="sec01" x1="920.000" y1="0" x2="920.000" y2="1800.000" />
  <line class="sec01" x1="930.000" y1="0" x2="930.000" y2="1800.000" />
  <line class="sec01" x1="940.000" y1="0" x2="940.000" y2="1800.000" />
  <line class="sec01" x1="950.000" y1="0" x2="950.000" y2="1800.000" />
  <line class="sec01" x1="960.000" y1="0" x2="960.000" y2="1800.000" />
  <line class="sec01" x1="970.000" y1="0" x2="970.000" y2="1800.000" />
  <line class="sec01" x1="980.000" y1="0" x2="980.000" y2="1800.000" />
  <line class="sec01" x1="990.000" y1="0" x2="990.000" y2="1800.000" />
  <line class="sec5" x1="1000.000" y1="0" x2="1000.000" y2="1800.000" />
  <text class="sec" x="1000.000" y="-5.000" >10.0s</text>
  <line class="sec01" x1="1010.000" y1="0" x2="1010.000" y2="1800.000" />
  <line class="sec01" x1="1020.000" y1="0" x2="1020.000" y2="1800.000" />
  <line class="sec01" x1="1030.000" y1="0" x2="1030.000" y2="1800.000" />
  <line class="sec01" x1="1040.000" y1="0" x2="1040.000" y2="1800.000" />
  <line class="sec01" x1="1050.000" y1="0" x2="1050.000" y2="1800.000" />
  <line class="sec01" x1="1060.000" y1="0" x2="1060.000" y2="1800.000" />
  <line class="sec01" x1="1070.000" y1="0" x2="1070.000" y2="1800.000" />
  <line class="sec01" x1="1080.000" y1="0" x2="1080.000" y2="1800.000" />
  <line class="sec01" x1="1090.000" y1="0" x2="1090.000" y2="1800.000" />
  <line class="sec1" x1="1100.000" y1="0" x2="1100.000" y2="1800.000" />
  <text class="sec" x="1100.000" y="-5.000" >11.0s</text>
  <line class="sec01" x1="1110.000" y1="0" x2="1110.000" y2="1800.000" />
  <line class="sec01" x1="1120.000" y1="0" x2="1120.000" y2="1800.000" />
  <line class="sec01" x1="1130.000" y1="0" x2="1130.000" y2="1800.000" />
  <line class="sec01" x1="1140.000" y1="0" x2="1140.000" y2="1800.000" />
  <line class="sec01" x1="1150.000" y1="0" x2="1150.000" y2="1800.000" />
  <line class="sec01" x1="1160.000" y1="0" x2="1160.000" y2="1800.000" />
  <line class="sec01" x1="1170.000" y1="0" x2="1170.000" y2="1800.000" />
  <line class="sec01" x1="1180.000" y1="0" x2="1180.000" y2="1800.000" />
  <line class="sec01" x1="1190.000" y1="0" x2="1190.000" y2="1800.000" />
  <line class="sec1" x1="1200.000" y1="0" x2="1200.000" y2="1800.000" />
  <text class="sec" x="1200.000" y="-5.000" >12.0s</text>
  <line class="sec01" x1="1210.000" y1="0" x2="1210.000" y2="1800.000" />
  <line class="sec01" x1="1220.000" y1="0" x2="1220.000" y2="1800.000" />
  <line class="sec01" x1="1230.000" y1="0" x2="1230.000" y2="1800.000" />
  <line class="sec01" x1="1240.000" y1="0" x2="1240.000" y2="1800.000" />
  <line class="sec01" x1="1250.000" y1="0" x2="1250.000" y2="1800.000" />
  <line class="sec01" x1="1260.000" y1="0" x2="1260.000" y2="1800.000" />
  <line class="sec01" x1="1270.000" y1="0" x2="1270.000" y2="1800.000" />
  <line class="sec01" x1="1280.000" y1="0" x2="1280.000" y2="1800.000" />
  <line class="sec01" x1="1290.000" y1="0" x2="1290.000" y2="1800.000" />
  <line class="sec1" x1="1300.000" y1="0" x2="1300.000" y2="1800.000" />
  <text class="sec" x="1300.000" y="-5.000" >13.0s</text>
  <line class="sec01" x1="1310.000" y1="0" x2="1310.000" y2="1800.000" />
  <line class="sec01" x1="1320.000" y1="0" x2="1320.000" y2="1800.000" />
  <line class="sec01" x1="1330.000" y1="0" x2="1330.000" y2="1800.000" />
  <line class="sec01" x1="1340.000" y1="0" x2="1340.000" y2="1800.000" />
  <line class="sec01" x1="1350.000" y1="0" x2="1350.000" y2="1800.000" />
  <line class="sec01" x1="1360.000" y1="0" x2="1360.000" y2="1800.000" />
  <line class="sec01" x1="1370.000" y1="0" x2="1370.000" y2="1800.000" />
  <line class="sec01" x1="1380.000" y1="0" x2="1380.000" y2="1800.000" />
  <line class="sec01" x1="1390.000" y1="0" x2="1390.000" y2="1800.000" />
  <line class="sec1" x1="1400.000" y1="0" x2="1400.000" y2="1800.000" />
  <text class="sec" x="1400.000" y="-5.000" >14.0s</text>
  <line class="sec01" x1="1410.000" y1="0" x2="1410.000" y2="1800.000" />
  <line class="sec01" x1="1420.000" y1="0" x2="1420.000" y2="1800.000" />
  <line class="sec01" x1="1430.000" y1="0" x2="1430.000" y2="1800.000" />
  <line class="sec01" x1="1440.000" y1="0" x2="1440.000" y2="1800.000" />
  <line class="sec01" x1="1450.000" y1="0" x2="1450.000" y2="1800.000" />
  <line class="sec01" x1="1460.000" y1="0" x2="1460.000" y2="1800.000" />
  <line class="sec01" x1="1470.000" y1="0" x2="1470.000" y2="1800.000" />
  <line class="sec01" x1="1480.000" y1="0" x2="1480.000" y2="1800.000" />
  <line class="sec01" x1="1490.000" y1="0" x2="1490.000" y2="1800.000" />
  <line class="sec5" x1="1500.000" y1="0" x2="1500.000" y2="1800.000" />
  <text class="sec" x="1500.000" y="-5.000" >15.0s</text>
  <line class="sec01" x1="1510.000" y1="0" x2="1510.000" y2="1800.000" />
  <line class="sec01" x1="1520.000" y1="0" x2="1520.000" y2="1800.000" />
  <line class="sec01" x1="1530.000" y1="0" x2="1530.000" y2="1800.000" />
  <line class="sec01" x1="1540.000" y1="0" x2="1540.000" y2="1800.000" />
  <line class="sec01" x1="1550.000" y1="0" x2="1550.000" y2="1800.000" />
  <line class="sec01" x1="1560.000" y1="0" x2="1560.000" y2="1800.000" />
  <line class="sec01" x1="1570.000" y1="0" x2="1570.000" y2="1800.000" />
  <line class="sec01" x1="1580.000" y1="0" x2="1580.000" y2="1800.000" />
  <line class="sec01" x1="1590.000" y1="0" x2="1590.000" y2="1800.000" />
  <line class="sec1" x1="1600.000" y1="0" x2="1600.000" y2="1800.000" />
  <text class="sec" x="1600.000" y="-5.000" >16.0s</text>
  <line class="sec01" x1="1610.000" y1="0" x2="1610.000" y2="1800.000" />
  <line class="sec01" x1="1620.000" y1="0" x2="1620.000" y2="1800.000" />
  <line class="sec01" x1="1630.000" y1="0" x2="1630.000" y2="1800.000" />
  <line class="sec01" x1="1640.000" y1="0" x2="1640.000" y2="1800.000" />
  <line class="sec01" x1="1650.000" y1="0" x2="1650.000" y2="1800.000" />
  <line class="sec01" x1="1660.000" y1="0" x2="1660.000" y2="1800.000" />
  <line class="sec01" x1="1670.000" y1="0" x2="1670.000" y2="1800.000" />
  <line class="sec01" x1="1680.000" y1="0" x2="1680.000" y2="1800.000" />
  <line class="sec01" x1="1690.000" y1="0" x2="1690.000" y2="1800.000" />
  <line class="sec1" x1="1700.000" y1="0" x2="1700.000" y2="1800.000" />
  <text class="sec" x="1700.000" y="-5.000" >17.0s</text>
  <rect class="kernel" x="0.000" y="0.000" width="53.363" height="19.000" />
  <text class="left" x="5.000" y="14.000">kernel</text>
  <rect class="initrd" x="53.363" y="20.000" width="196.808" height="19.000" />
  <text class="left" x="58.363" y="34.000">initrd</text>
  <rect class="active" x="250.171" y="40.000" width="1454.002" height="19.000" />
  <rect class="security" x="53.381" y="40.000" width="0.002" height="19.000" />
  <rect class="generators" x="54.630" y="40.000" width="3.322" height="19.000" />
  <rect class="unitsload" x="57.973" y="40.000" width="0.055" height="19.000" />
  <text class="left" x="255.171" y="54.000">systemd</text>
  <rect class="activating" x="323.458" y="60.000" width="12.512" height="19.000" />
  <rect class="active" x="335.969" y="60.000" width="1368.204" height="19.000" />
  <rect class="deactivating" x="1704.173" y="60.000" width="0.000" height="19.000" />
  <text class="left" x="328.458" y="74.000">systemd-journald.service (125ms)</text>
  <rect class="activating" x="323.511" y="80.000" width="0.000" height="19.000" />
  <rect class="active" x="323.511" y="80.000" width="1380.662" height="19.000" />
  <rect class="deactivating" x="1704.173" y="80.000" width="0.000" height="19.000" />
  <text class="left" x="328.511" y="94.000">systemd-initctl.socket</text>
  <rect class="activating" x="323.596" y="100.000" width="11.214" height="19.000" />
  <rect class="active" x="334.811" y="100.000" width="1369.362" height="19.000" />
  <rect class="deactivating" x="1704.173" y="100.000" width="0.000" height="19.000" />
  <text class="left" x="328.596" y="114.000">nis-domainname.service (112ms)</text>
  <rect class="activating" x="323.654" y="120.000" width="11.187" height="19.000" />
  <rect class="active" x="334.841" y="120.000" width="1369.332" height="19.000" />
  <rect class="deactivating" x="1704.173" y="120.000" width="0.000" height="19.000" />
  <text class="left" x="328.654" y="134.000">systemd-remount-fs.service (111ms)</text>
  <rect class="activating" x="323.673" y="140.000" width="0.000" height="19.000" />
  <rect class="active" x="323.673" y="140.000" width="1380.500" height="19.000" />
  <rect class="deactivating" x="1704.173" y="140.000" width="0.000" height="19.000" />
  <text class="left" x="328.673" y="154.000">user.slice</text>
  <rect class="activating" x="323.676" y="160.000" width="0.000" height="19.000" />
  <rect class="active" x="323.676" y="160.000" width="1380.496" height="19.000" />
  <rect class="deactivating" x="1704.173" y="160.000" width="0.000" height="19.000" />
  <text class="left" x="328.676" y="174.000">slices.target</text>
  <rect class="activating" x="323.740" y="180.000" width="11.125" height="19.000" />
  <rect class="active" x="334.865" y="180.000" width="1369.308" height="19.000" />
  <rect class="deactivating" x="1704.173" y="180.000" width="0.000" height="19.000" />
  <text class="left" x="328.740" y="194.000">dev-hugepages.mount (111ms)</text>
  <rect class="activating" x="323.796" y="200.000" width="11.107" height="19.000" />
  <rect class="active" x="334.904" y="200.000" width="1369.269" height="19.000" />
  <rect class="deactivating" x="1704.173" y="200.000" width="0.000" height="19.000" />
  <text class="left" x="328.796" y="214.000">sys-kernel-debug.mount (111ms)</text>
  <rect class="activating" x="323.863" y="220.000" width="0.000" height="19.000" />
  <rect class="active" x="323.863" y="220.000" width="1380.310" height="19.000" />
  <rect class="deactivating" x="1704.173" y="220.000" width="0.000" height="19.000" />
  <text class="left" x="328.863" y="234.000">proc-sys-fs-binfmt_misc.automount</text>
  <rect class="activating" x="324.006" y="240.000" width="10.928" height="19.000" />
  <rect class="active" x="334.935" y="240.000" width="1369.238" height="19.000" />
  <rect class="deactivating" x="1704.173" y="240.000" width="0.000" height="19.000" />
  <text class="left" x="329.006" y="254.000">systemd-sysctl.service (109ms)</text>
  <rect class="activating" x="324.034" y="260.000" width="0.000" height="19.000" />
  <rect class="active" x="324.034" y="260.000" width="1380.139" height="19.000" />
  <rect class="deactivating" x="1704.173" y="260.000" width="0.000" height="19.000" />
  <text class="left" x="329.034" y="274.000">system-sshd\x2dkeygen.slice</text>
  <rect class="activating" x="324.085" y="280.000" width="10.921" height="19.000" />
  <rect class="active" x="335.006" y="280.000" width="1369.167" height="19.000" />
  <rect class="deactivating" x="1704.173" y="280.000" width="0.000" height="19.000" />
  <text class="left" x="329.085" y="294.000">kmod-static-nodes.service (109ms)</text>
  <rect class="activating" x="325.056" y="300.000" width="0.000" height="19.000" />
  <rect class="active" x="325.056" y="300.000" width="1379.117" height="19.000" />
  <rect class="deactivating" x="1704.173" y="300.000" width="0.000" height="19.000" />
  <text class="left" x="330.056" y="314.000">systemd-ask-password-wall.path</text>
  <rect class="activating" x="325.093" y="320.000" width="0.000" height="19.000" />
  <rect class="active" x="325.093" y="320.000" width="1379.080" height="19.000" />
  <rect class="deactivating" x="1704.173" y="320.000" width="0.000" height="19.000" />
  <text class="left" x="330.093" y="334.000">systemd-udevd-kernel.socket</text>
  <rect class="activating" x="325.586" y="340.000" width="0.000" height="19.000" />
  <rect class="active" x="325.586" y="340.000" width="1378.587" height="19.000" />
  <rect class="deactivating" x="1704.173" y="340.000" width="0.000" height="19.000" />
  <text class="left" x="330.586" y="354.000">rpcbind.socket</text>
  <rect class="activating" x="326.135" y="360.000" width="0.000" height="19.000" />
  <rect class="active" x="326.135" y="360.000" width="1378.038" height="19.000" />
  <rect class="deactivating" x="1704.173" y="360.000" width="0.000" height="19.000" />
  <text class="left" x="331.135" y="374.000">rpcbind.target</text>
  <rect class="activating" x="326.232" y="380.000" width="8.874" height="19.000" />
  <rect class="active" x="335.106" y="380.000" width="1369.067" height="19.000" />
  <rect class="deactivating" x="1704.173" y="380.000" width="0.000" height="19.000" />
  <text class="left" x="331.232" y="394.000">dev-mqueue.mount (88ms)</text>
  <rect class="activating" x="326.252" y="400.000" width="0.000" height="19.000" />
  <rect class="active" x="326.252" y="400.000" width="1377.921" height="19.000" />
  <rect class="deactivating" x="1704.173" y="400.000" width="0.000" height="19.000" />
  <text class="left" x="331.252" y="414.000">system-getty.slice</text>
  <rect class="activating" x="334.534" y="420.000" width="0.000" height="19.000" />
  <rect class="active" x="334.534" y="420.000" width="1369.639" height="19.000" />
  <rect class="deactivating" x="1704.173" y="420.000" width="0.000" height="19.000" />
  <text class="left" x="339.534" y="434.000">systemd-coredump.socket</text>
  <rect class="activating" x="334.599" y="440.000" width="0.000" height="19.000" />
  <rect class="active" x="334.599" y="440.000" width="1369.574" height="19.000" />
  <rect class="deactivating" x="1704.173" y="440.000" width="0.000" height="19.000" />
  <text class="left" x="339.599" y="454.000">systemd-udevd-control.socket</text>
  <rect class="activating" x="334.654" y="460.000" width="59.724" height="19.000" />
  <rect class="active" x="394.378" y="460.000" width="1309.795" height="19.000" />
  <rect class="deactivating" x="1704.173" y="460.000" width="0.000" height="19.000" />
  <text class="left" x="339.654" y="474.000">systemd-udev-trigger.service (597ms)</text>
  <rect class="activating" x="334.669" y="480.000" width="0.000" height="19.000" />
  <rect class="active" x="334.669" y="480.000" width="1369.504" height="19.000" />
  <rect class="deactivating" x="1704.173" y="480.000" width="0.000" height="19.000" />
  <text class="left" x="339.669" y="494.000">systemd-ask-password-console.path</text>
  <rect class="activating" x="334.672" y="500.000" width="0.000" height="19.000" />
  <rect class="active" x="334.672" y="500.000" width="1369.501" height="19.000" />
  <rect class="deactivating" x="1704.173" y="500.000" width="0.000" height="19.000" />
  <text class="left" x="339.672" y="514.000">cryptsetup.target</text>
  <rect class="activating" x="334.675" y="520.000" width="0.000" height="19.000" />
  <rect class="active" x="334.675" y="520.000" width="1369.498" height="19.000" />
  <rect class="deactivating" x="1704.173" y="520.000" width="0.000" height="19.000" />
  <text class="left" x="339.675" y="534.000">paths.target</text>
  <rect class="activating" x="335.221" y="540.000" width="110.365" height="19.000" />
  <rect class="active" x="445.586" y="540.000" width="1258.587" height="19.000" />
  <rect class="deactivating" x="1704.173" y="540.000" width="0.000" height="19.000" />
  <text class="left" x="340.221" y="554.000">systemd-hwdb-update.service (1.103s)</text>
  <rect class="activating" x="335.305" y="560.000" width="8.816" height="19.000" />
  <rect class="active" x="344.121" y="560.000" width="1360.052" height="19.000" />
  <rect class="deactivating" x="1704.173" y="560.000" width="0.000" height="19.000" />
  <text class="left" x="340.305" y="574.000">systemd-random-seed.service (88ms)</text>
  <rect class="activating" x="335.480" y="580.000" width="8.500" height="19.000" />
  <rect class="active" x="343.980" y="580.000" width="1360.193" height="19.000" />
  <rect class="deactivating" x="1704.173" y="580.000" width="0.000" height="19.000" />
  <text class="left" x="340.480" y="594.000">swapfile.swap (85ms)</text>
  <rect class="activating" x="335.767" y="600.000" width="8.580" height="19.000" />
  <rect class="active" x="344.346" y="600.000" width="1359.826" height="19.000" />
  <rect class="deactivating" x="1704.173" y="600.000" width="0.000" height="19.000" />
  <text class="left" x="340.767" y="614.000">systemd-sysusers.service (85ms)</text>
  <rect class="activating" x="344.199" y="620.000" width="0.000" height="19.000" />
  <rect class="active" x="344.199" y="620.000" width="1359.974" height="19.000" />
  <rect class="deactivating" x="1704.173" y="620.000" width="0.000" height="19.000" />
  <text class="left" x="349.199" y="634.000">swap.target</text>
  <rect class="activating" x="344.307" y="640.000" width="2.717" height="19.000" />
  <rect class="active" x="347.025" y="640.000" width="1357.148" height="19.000" />
  <rect class="deactivating" x="1704.173" y="640.000" width="0.000" height="19.000" />
  <text class="left" x="349.307" y="654.000">systemd-journal-flush.service (27ms)</text>
  <rect class="activating" x="344.474" y="660.000" width="7.466" height="19.000" />
  <rect class="active" x="351.939" y="660.000" width="1352.234" height="19.000" />
  <rect class="deactivating" x="1704.173" y="660.000" width="0.000" height="19.000" />
  <text class="left" x="349.474" y="674.000">systemd-tmpfiles-setup-dev.service (74ms)</text>
  <rect class="activating" x="351.951" y="680.000" width="0.000" height="19.000" />
  <rect class="active" x="351.951" y="680.000" width="1352.222" height="19.000" />
  <rect class="deactivating" x="1704.173" y="680.000" width="0.000" height="19.000" />
  <text class="left" x="356.951" y="694.000">local-fs-pre.target</text>
  <rect class="activating" x="351.954" y="700.000" width="0.000" height="19.000" />
  <rect class="active" x="351.954" y="700.000" width="1352.219" height="19.000" />
  <rect class="deactivating" x="1704.173" y="700.000" width="0.000" height="19.000" />
  <text class="left" x="356.954" y="714.000">local-fs.target</text>
  <rect class="activating" x="352.007" y="720.000" width="5.463" height="19.000" />
  <rect class="active" x="357.470" y="720.000" width="1346.703" height="19.000" />
  <rect class="deactivating" x="1704.173" y="720.000" width="0.000" height="19.000" />
  <text class="left" x="357.007" y="734.000">systemd-machine-id-commit.service (54ms)</text>
  <rect class="activating" x="352.082" y="740.000" width="37.309" height="19.000" />
  <rect class="active" x="389.391" y="740.000" width="1314.782" height="19.000" />
  <rect class="deactivating" x="1704.173" y="740.000" width="0.000" height="19.000" />
  <text class="left" x="357.082" y="754.000">import-state.service (373ms)</text>
  <rect class="activating" x="352.141" y="760.000" width="1.543" height="19.000" />
  <rect class="active" x="353.684" y="760.000" width="1350.489" height="19.000" />
  <rect class="deactivating" x="1704.173" y="760.000" width="0.000" height="19.000" />
  <text class="left" x="357.141" y="774.000">dracut-shutdown.service (15ms)</text>
  <rect class="activating" x="352.196" y="780.000" width="33.867" height="19.000" />
  <rect class="active" x="386.063" y="780.000" width="1318.110" height="19.000" />
  <rect class="deactivating" x="1704.173" y="780.000" width="0.000" height="19.000" />
  <text class="left" x="357.196" y="794.000">ldconfig.service (338ms)</text>
  <rect class="activating" x="352.264" y="800.000" width="6.160" height="19.000" />
  <rect class="active" x="358.423" y="800.000" width="1345.749" height="19.000" />
  <rect class="deactivating" x="1704.173" y="800.000" width="0.000" height="19.000" />
  <text class="left" x="357.264" y="814.000">systemd-journal-catalog-update.service (61ms)</text>
  <rect class="activating" x="389.470" y="820.000" width="12.179" height="19.000" />
  <rect class="active" x="401.649" y="820.000" width="1302.524" height="19.000" />
  <rect class="deactivating" x="1704.173" y="820.000" width="0.000" height="19.000" />
  <text class="left" x="394.470" y="834.000">systemd-tmpfiles-setup.service (121ms)</text>
  <rect class="activating" x="401.757" y="840.000" width="14.456" height="19.000" />
  <rect class="active" x="416.213" y="840.000" width="1287.960" height="19.000" />
  <rect class="deactivating" x="1704.173" y="840.000" width="0.000" height="19.000" />
  <text class="left" x="406.757" y="854.000">rpcbind.service (144ms)</text>
  <rect class="activating" x="401.828" y="860.000" width="19.544" height="19.000" />
  <rect class="active" x="421.372" y="860.000" width="1282.801" height="19.000" />
  <rect class="deactivating" x="1704.173" y="860.000" width="0.000" height="19.000" />
  <text class="left" x="406.828" y="874.000">var-lib-nfs-rpc_pipefs.mount (195ms)</text>
  <rect class="activating" x="401.895" y="880.000" width="24.795" height="19.000" />
  <rect class="active" x="426.690" y="880.000" width="1277.483" height="19.000" />
  <rect class="deactivating" x="1704.173" y="880.000" width="0.000" height="19.000" />
  <text class="left" x="406.895" y="894.000">auditd.service (247ms)</text>
  <rect class="activating" x="421.382" y="900.000" width="0.000" height="19.000" />
  <rect class="active" x="421.382" y="900.000" width="1282.791" height="19.000" />
  <rect class="deactivating" x="1704.173" y="900.000" width="0.000" height="19.000" />
  <text class="left" x="426.382" y="914.000">rpc_pipefs.target</text>
  <rect class="activating" x="426.773" y="920.000" width="1.264" height="19.000" />
  <rect class="active" x="428.037" y="920.000" width="1276.136" height="19.000" />
  <rect class="deactivating" x="1704.173" y="920.000" width="0.000" height="19.000" />
  <text class="left" x="431.773" y="934.000">systemd-update-utmp.service (12ms)</text>
  <rect class="activating" x="445.649" y="940.000" width="2.883" height="19.000" />
  <rect class="active" x="448.532" y="940.000" width="1255.641" height="19.000" />
  <rect class="deactivating" x="1704.173" y="940.000" width="0.000" height="19.000" />
  <text class="left" x="450.649" y="954.000">systemd-update-done.service (28ms)</text>
  <rect class="activating" x="445.747" y="960.000" width="5.310" height="19.000" />
  <rect class="active" x="451.057" y="960.000" width="1253.116" height="19.000" />
  <rect class="deactivating" x="1704.173" y="960.000" width="0.000" height="19.000" />
  <text class="left" x="450.747" y="974.000">systemd-udevd.service (53ms)</text>
  <rect class="activating" x="451.070" y="980.000" width="0.000" height="19.000" />
  <rect class="active" x="451.070" y="980.000" width="1253.103" height="19.000" />
  <rect class="deactivating" x="1704.173" y="980.000" width="0.000" height="19.000" />
  <text class="left" x="456.070" y="994.000">sysinit.target</text>
  <rect class="activating" x="451.075" y="1000.000" width="0.000" height="19.000" />
  <rect class="active" x="451.075" y="1000.000" width="1253.098" height="19.000" />
  <rect class="deactivating" x="1704.173" y="1000.000" width="0.000" height="19.000" />
  <text class="left" x="456.075" y="1014.000">systemd-tmpfiles-clean.timer</text>
  <rect class="activating" x="451.160" y="1020.000" width="0.000" height="19.000" />
  <rect class="active" x="451.160" y="1020.000" width="1253.013" height="19.000" />
  <rect class="deactivating" x="1704.173" y="1020.000" width="0.000" height="19.000" />
  <text class="left" x="456.160" y="1034.000">dbus.socket</text>
  <rect class="activating" x="451.184" y="1040.000" width="0.000" height="19.000" />
  <rect class="active" x="451.184" y="1040.000" width="1252.989" height="19.000" />
  <rect class="deactivating" x="1704.173" y="1040.000" width="0.000" height="19.000" />
  <text class="left" x="456.184" y="1054.000">sssd-kcm.socket</text>
  <rect class="activating" x="451.187" y="1060.000" width="0.000" height="19.000" />
  <rect class="active" x="451.187" y="1060.000" width="1252.986" height="19.000" />
  <rect class="deactivating" x="1704.173" y="1060.000" width="0.000" height="19.000" />
  <text class="left" x="456.187" y="1074.000">sockets.target</text>
  <rect class="activating" x="451.189" y="1080.000" width="0.000" height="19.000" />
  <rect class="active" x="451.189" y="1080.000" width="1252.984" height="19.000" />
  <rect class="deactivating" x="1704.173" y="1080.000" width="0.000" height="19.000" />
  <text class="left" x="456.189" y="1094.000">basic.target</text>
  <rect class="activating" x="451.276" y="1100.000" width="119.115" height="19.000" />
  <rect class="active" x="570.391" y="1100.000" width="1133.782" height="19.000" />
  <rect class="deactivating" x="1704.173" y="1100.000" width="0.000" height="19.000" />
  <text class="left" x="456.276" y="1114.000">polkit.service (1.191s)</text>
  <rect class="activating" x="451.355" y="1120.000" width="105.992" height="19.000" />
  <rect class="active" x="557.347" y="1120.000" width="0.000" height="19.000" />
  <rect class="deactivating" x="557.347" y="1120.000" width="0.000" height="19.000" />
  <text class="left" x="456.355" y="1134.000">sshd-keygen@ed25519.service (1.059s)</text>
  <rect class="activating" x="451.413" y="1140.000" width="0.000" height="19.000" />
  <rect class="active" x="451.413" y="1140.000" width="1252.760" height="19.000" />
  <rect class="deactivating" x="1704.173" y="1140.000" width="0.000" height="19.000" />
  <text class="left" x="456.413" y="1154.000">rngd.service</text>
  <rect class="activating" x="451.526" y="1160.000" width="85.751" height="19.000" />
  <rect class="active" x="537.277" y="1160.000" width="0.000" height="19.000" />
  <rect class="deactivating" x="537.277" y="1160.000" width="0.000" height="19.000" />
  <text class="left" x="456.526" y="1174.000">sshd-keygen@rsa.service (857ms)</text>
  <rect class="activating" x="451.788" y="1180.000" width="18.301" height="19.000" />
  <rect class="active" x="470.089" y="1180.000" width="1234.084" height="19.000" />
  <rect class="deactivating" x="1704.173" y="1180.000" width="0.000" height="19.000" />
  <text class="left" x="456.788" y="1194.000">gssproxy.service (183ms)</text>
  <rect class="activating" x="452.689" y="1200.000" width="41.089" height="19.000" />
  <rect class="active" x="493.778" y="1200.000" width="1210.395" height="19.000" />
  <rect class="deactivating" x="1704.173" y="1200.000" width="0.000" height="19.000" />
  <text class="left" x="457.689" y="1214.000">chronyd.service (410ms)</text>
  <rect class="activating" x="453.781" y="1220.000" width="0.000" height="19.000" />
  <rect class="active" x="453.781" y="1220.000" width="5.415" height="19.000" />
  <rect class="deactivating" x="459.197" y="1220.000" width="0.000" height="19.000" />
  <text class="left" x="458.781" y="1234.000">irqbalance.service</text>
  <rect class="activating" x="453.860" y="1240.000" width="0.000" height="19.000" />
  <rect class="active" x="453.860" y="1240.000" width="1250.313" height="19.000" />
  <rect class="deactivating" x="1704.173" y="1240.000" width="0.000" height="19.000" />
  <text class="left" x="458.860" y="1254.000">dbus.service</text>
  <rect class="activating" x="456.933" y="1260.000" width="225.596" height="19.000" />
  <rect class="active" x="682.528" y="1260.000" width="1021.645" height="19.000" />
  <rect class="deactivating" x="1704.173" y="1260.000" width="0.000" height="19.000" />
  <text class="left" x="461.933" y="1274.000">sssd.service (2.255s)</text>
  <rect class="activating" x="459.026" y="1280.000" width="0.000" height="19.000" />
  <rect class="active" x="459.026" y="1280.000" width="1245.147" height="19.000" />
  <rect class="deactivating" x="1704.173" y="1280.000" width="0.000" height="19.000" />
  <text class="left" x="464.026" y="1294.000">dnf-makecache.timer</text>
  <rect class="activating" x="459.055" y="1300.000" width="0.000" height="19.000" />
  <rect class="active" x="459.055" y="1300.000" width="1245.118" height="19.000" />
  <rect class="deactivating" x="1704.173" y="1300.000" width="0.000" height="19.000" />
  <text class="left" x="464.055" y="1314.000">unbound-anchor.timer</text>
  <rect class="activating" x="459.064" y="1320.000" width="0.000" height="19.000" />
  <rect class="active" x="459.064" y="1320.000" width="1245.109" height="19.000" />
  <rect class="deactivating" x="1704.173" y="1320.000" width="0.000" height="19.000" />
  <text class="left" x="464.064" y="1334.000">timers.target</text>
  <rect class="activating" x="459.132" y="1340.000" width="73.210" height="19.000" />
  <rect class="active" x="532.342" y="1340.000" width="0.000" height="19.000" />
  <rect class="deactivating" x="532.342" y="1340.000" width="0.000" height="19.000" />
  <text class="left" x="464.132" y="1354.000">sshd-keygen@ecdsa.service (732ms)</text>
  <rect class="activating" x="470.193" y="1360.000" width="0.000" height="19.000" />
  <rect class="active" x="470.193" y="1360.000" width="1233.980" height="19.000" />
  <rect class="deactivating" x="1704.173" y="1360.000" width="0.000" height="19.000" />
  <text class="left" x="475.193" y="1374.000">nfs-client.target</text>
  <rect class="activating" x="470.197" y="1380.000" width="0.000" height="19.000" />
  <rect class="active" x="470.197" y="1380.000" width="1233.976" height="19.000" />
  <rect class="deactivating" x="1704.173" y="1380.000" width="0.000" height="19.000" />
  <text class="left" x="475.197" y="1394.000">remote-fs-pre.target</text>
  <rect class="activating" x="470.199" y="1400.000" width="0.000" height="19.000" />
  <rect class="active" x="470.199" y="1400.000" width="1233.974" height="19.000" />
  <rect class="deactivating" x="1704.173" y="1400.000" width="0.000" height="19.000" />
  <text class="left" x="475.199" y="1414.000">remote-fs.target</text>
  <rect class="activating" x="520.247" y="1420.000" width="0.000" height="19.000" />
  <rect class="active" x="520.247" y="1420.000" width="1183.926" height="19.000" />
  <rect class="deactivating" x="1704.173" y="1420.000" width="0.000" height="19.000" />
  <text class="left" x="525.247" y="1434.000">network.target</text>
  <rect class="activating" x="520.330" y="1440.000" width="264.973" height="19.000" />
  <rect class="active" x="785.303" y="1440.000" width="918.870" height="19.000" />
  <rect class="deactivating" x="1704.173" y="1440.000" width="0.000" height="19.000" />
  <text class="left" x="525.330" y="1454.000">tuned.service (2.649s)</text>
  <rect class="activating" x="557.538" y="1460.000" width="0.000" height="19.000" />
  <rect class="active" x="557.538" y="1460.000" width="1146.635" height="19.000" />
  <rect class="deactivating" x="1704.173" y="1460.000" width="0.000" height="19.000" />
  <text class="left" x="562.538" y="1474.000">sshd-keygen.target</text>
  <rect class="activating" x="557.665" y="1480.000" width="17.319" height="19.000" />
  <rect class="active" x="574.984" y="1480.000" width="1129.189" height="19.000" />
  <rect class="deactivating" x="1704.173" y="1480.000" width="0.000" height="19.000" />
  <text class="left" x="562.665" y="1494.000">sshd.service (173ms)</text>
  <rect class="activating" x="682.539" y="1500.000" width="0.000" height="19.000" />
  <rect class="active" x="682.539" y="1500.000" width="1021.634" height="19.000" />
  <rect class="deactivating" x="1704.173" y="1500.000" width="0.000" height="19.000" />
  <text class="left" x="687.539" y="1514.000">nss-user-lookup.target</text>
  <rect class="activating" x="682.606" y="1520.000" width="17.967" height="19.000" />
  <rect class="active" x="700.574" y="1520.000" width="1003.599" height="19.000" />
  <rect class="deactivating" x="1704.173" y="1520.000" width="0.000" height="19.000" />
  <text class="left" x="687.606" y="1534.000">systemd-logind.service (179ms)</text>
  <rect class="activating" x="682.662" y="1540.000" width="18.346" height="19.000" />
  <rect class="active" x="701.008" y="1540.000" width="1003.165" height="19.000" />
  <rect class="deactivating" x="1704.173" y="1540.000" width="0.000" height="19.000" />
  <text class="left" x="687.662" y="1554.000">systemd-user-sessions.service (183ms)</text>
  <rect class="activating" x="701.136" y="1560.000" width="0.000" height="19.000" />
  <rect class="active" x="701.136" y="1560.000" width="1003.037" height="19.000" />
  <rect class="deactivating" x="1704.173" y="1560.000" width="0.000" height="19.000" />
  <text class="left" x="706.136" y="1574.000">crond.service</text>
  <rect class="activating" x="701.218" y="1580.000" width="0.000" height="19.000" />
  <rect class="active" x="701.218" y="1580.000" width="1002.955" height="19.000" />
  <rect class="deactivating" x="1704.173" y="1580.000" width="0.000" height="19.000" />
  <text class="left" x="706.218" y="1594.000">getty@tty1.service</text>
  <rect class="activating" x="701.254" y="1600.000" width="0.000" height="19.000" />
  <rect class="active" x="701.254" y="1600.000" width="1002.919" height="19.000" />
  <rect class="deactivating" x="1704.173" y="1600.000" width="0.000" height="19.000" />
  <text class="left" x="706.254" y="1614.000">getty.target</text>
  <rect class="activating" x="1075.309" y="1620.000" width="0.000" height="19.000" />
  <rect class="active" x="1075.309" y="1620.000" width="628.864" height="19.000" />
  <rect class="deactivating" x="1704.173" y="1620.000" width="0.000" height="19.000" />
  <text class="right" x="1070.309" y="1634.000">sys-devices-pci0000:00-0000:00:05.0-sound-card0.device</text>
  <rect class="activating" x="1075.313" y="1640.000" width="0.000" height="19.000" />
  <rect class="active" x="1075.313" y="1640.000" width="628.860" height="19.000" />
  <rect class="deactivating" x="1704.173" y="1640.000" width="0.000" height="19.000" />
  <text class="right" x="1070.313" y="1654.000">sound.target</text>
  <rect class="activating" x="1125.016" y="1660.000" width="0.000" height="19.000" />
  <rect class="active" x="1125.016" y="1660.000" width="579.157" height="19.000" />
  <rect class="deactivating" x="1704.173" y="1660.000" width="0.000" height="19.000" />
  <text class="right" x="1120.016" y="1674.000">system-user\x2druntime\x2ddir.slice</text>
  <rect class="activating" x="1693.517" y="1680.000" width="0.000" height="19.000" />
  <rect class="active" x="1693.517" y="1680.000" width="10.656" height="19.000" />
  <rect class="deactivating" x="1704.173" y="1680.000" width="0.000" height="19.000" />
  <text class="right" x="1688.517" y="1694.000">network-online.target</text>
  <rect class="activating" x="1693.596" y="1700.000" width="10.501" height="19.000" />
  <rect class="active" x="1704.097" y="1700.000" width="0.000" height="19.000" />
  <rect class="deactivating" x="1704.097" y="1700.000" width="0.000" height="19.000" />
  <text class="right" x="1688.596" y="1714.000">kdump.service (105ms)</text>
  <rect class="activating" x="1693.723" y="1720.000" width="5.015" height="19.000" />
  <rect class="active" x="1698.738" y="1720.000" width="5.435" height="19.000" />
  <rect class="deactivating" x="1704.173" y="1720.000" width="0.000" height="19.000" />
  <text class="right" x="1688.723" y="1734.000">rsyslog.service (50ms)</text>
  <rect class="activating" x="1693.781" y="1740.000" width="2.122" height="19.000" />
  <rect class="active" x="1695.903" y="1740.000" width="8.270" height="19.000" />
  <rect class="deactivating" x="1704.173" y="1740.000" width="0.000" height="19.000" />
  <text class="right" x="1688.781" y="1754.000">rpc-statd-notify.service (21ms)</text>
  <rect class="activating" x="1698.757" y="1760.000" width="0.000" height="19.000" />
  <rect class="active" x="1698.757" y="1760.000" width="5.416" height="19.000" />
  <rect class="deactivating" x="1704.173" y="1760.000" width="0.000" height="19.000" />
  <text class="right" x="1693.757" y="1774.000">multi-user.target</text>
  <rect class="activating" x="1698.823" y="1780.000" width="1.215" height="19.000" />
  <rect class="active" x="1700.039" y="1780.000" width="0.000" height="19.000" />
  <rect class="deactivating" x="1700.039" y="1780.000" width="0.000" height="19.000" />
  <text class="right" x="1693.823" y="1794.000">systemd-update-utmp-runlevel.service (12ms)</text>
</g>
<g transform="translate(20,100)">
  <rect class="activating" x="0.000" y="1820.000" width="30.000" height="19.000" />
  <text class="left" x="45.000" y="1834.000">Activating</text>
  <rect class="active" x="0.000" y="1840.000" width="30.000" height="19.000" />
  <text class="left" x="45.000" y="1854.000">Active</text>
  <rect class="deactivating" x="0.000" y="1860.000" width="30.000" height="19.000" />
  <text class="left" x="45.000" y="1874.000">Deactivating</text>
  <rect class="security" x="0.000" y="1880.000" width="30.000" height="19.000" />
  <text class="left" x="45.000" y="1894.000">Setting up security module</text>
  <rect class="generators" x="0.000" y="1900.000" width="30.000" height="19.000" />
  <text class="left" x="45.000" y="1914.000">Generators</text>
  <rect class="unitsload" x="0.000" y="1920.000" width="30.000" height="19.000" />
  <text class="left" x="45.000" y="1934.000">Loading unit files</text>
</g>

</svg>
